# File created by Blade
# Date/Time:  Tue Jan 27 19:14:06 2015
# Frame Rate: 120.000 fps
#------------------------------------------------------
:FULLY-SPECIFIED
:DEGREES
2535
root 4.214763 32.426451 1.435922 -1.986151 15.824495 2.356387
Spine -1.504867 7.458368 -2.087576
Head 18.609615 -21.123620 -9.267270
LeftShoulder -5.432244 -9.022565 21.998957
LeftArm -5.425286 36.613421 -102.901794
LeftForeArm 4.406307 -0.000000 11.181296
LeftHand 10.053272 -0.000000 -7.115056
LeftHandThumb1 -26.253704 0.000000 33.147579
RightShoulder -16.571374 16.154620 -63.167778
RightArm 105.975782 73.641755 112.013807
RightForeArm 28.635196 -0.000000 99.255799
RightHand 29.681333 -0.000000 -12.156835
RightHandThumb1 -24.326973 -0.000000 -32.862282
LeftUpLeg 8.412587 -9.918158 -2.236215
LeftLeg 0.995964 -0.000000 -0.000000
LeftFoot -12.214128 6.142815 -21.390180
LeftToeBase 19.033582 -0.000000 -0.000000
RightUpLeg 12.221872 -5.360480 2.298071
RightLeg -2.661855 -0.000000 0.000000
RightFoot -15.584563 -21.848693 17.424753
RightToeBase 12.043755 -0.000000 -0.000000
2536
root 4.218100 32.424069 1.449341 -2.013706 15.893986 2.367735
Spine -1.508272 7.408575 -2.092860
Head 18.584649 -21.149519 -9.163563
LeftShoulder -5.466242 -9.040036 22.009503
LeftArm -5.449060 36.554683 -102.931268
LeftForeArm 4.381860 0.000000 11.202488
LeftHand 10.017355 -0.000000 -7.168043
LeftHandThumb1 -26.253704 0.000000 33.147579
RightShoulder -16.632105 16.036502 -63.248358
RightArm 104.273257 73.769868 109.848971
RightForeArm 27.429328 -0.000000 96.170531
RightHand 29.457873 -0.000000 -11.785930
RightHandThumb1 -24.326973 -0.000000 -32.862282
LeftUpLeg 8.458536 -9.915436 -2.248372
LeftLeg 0.999570 -0.000000 -0.000000
LeftFoot -12.209089 6.081026 -21.369701
LeftToeBase 19.082700 -0.000000 -0.000000
RightUpLeg 12.276310 -5.435503 2.281609
RightLeg -2.641319 -0.000000 0.000000
RightFoot -15.644275 -21.834209 17.458544
RightToeBase 12.074766 -0.000000 -0.000000
2537
root 4.220269 32.420938 1.461420 -2.035936 15.968071 2.379139
Spine -1.522943 7.360321 -2.112250
Head 18.566853 -21.194548 -9.035584
LeftShoulder -5.477783 -9.059726 22.033668
LeftArm -5.463942 36.526934 -102.969036
LeftForeArm 4.407213 -0.000000 11.204841
LeftHand 10.047397 0.000000 -6.916685
LeftHandThumb1 -26.253704 0.000000 33.147579
RightShoulder -16.702740 15.917822 -63.346064
RightArm 102.345902 73.891549 107.466586
RightForeArm 26.325931 -0.000000 93.102422
RightHand 28.830045 -0.000000 -11.806890
RightHandThumb1 -24.326973 -0.000000 -32.862282
LeftUpLeg 8.494869 -9.914939 -2.254733
LeftLeg 0.995194 -0.000000 -0.000000
LeftFoot -12.225722 6.047887 -21.208233
LeftToeBase 19.249224 -0.000000 -0.000000
RightUpLeg 12.331155 -5.465134 2.276737
RightLeg -2.636620 -0.000000 0.000000
RightFoot -15.683413 -21.880277 17.425702
RightToeBase 12.042319 -0.000000 -0.000000
2538
root 4.222859 32.418431 1.473598 -2.058724 16.029705 2.396774
Spine -1.540042 7.325070 -2.144307
Head 18.564458 -21.238270 -8.896614
LeftShoulder -5.499254 -9.068748 22.058518
LeftArm -5.459754 36.514951 -102.996806
LeftForeArm 4.493299 0.000000 11.204837
LeftHand 10.001305 0.000000 -6.795620
LeftHandThumb1 -26.253704 0.000000 33.147579
RightShoulder -16.779410 15.867721 -63.465335
RightArm 99.933995 74.030704 104.563287
RightForeArm 25.639640 -0.000000 89.945022
RightHand 28.483587 -0.000000 -11.720967
RightHandThumb1 -24.326973 -0.000000 -32.862282
LeftUpLeg 8.532073 -9.947208 -2.275798
LeftLeg 1.014156 -0.000000 -0.000000
LeftFoot -12.217107 5.978617 -21.351629
LeftToeBase 19.007081 -0.000000 -0.000000
RightUpLeg 12.394074 -5.480848 2.264049
RightLeg -2.646426 -0.000000 0.000000
RightFoot -15.734741 -21.921059 17.446974
RightToeBase 12.086562 -0.000000 -0.000000
2539
root 4.225035 32.416422 1.485732 -2.085954 16.078521 2.407793
Spine -1.551580 7.276280 -2.161428
Head 18.550080 -21.251003 -8.791131
LeftShoulder -5.526467 -9.095867 22.073426
LeftArm -5.485214 36.485665 -103.029826
LeftForeArm 4.497125 -0.000000 11.199666
LeftHand 10.039222 -0.000000 -6.869597
LeftHandThumb1 -26.253704 0.000000 33.147579
RightShoulder -16.872207 15.824466 -63.583686
RightArm 97.499453 74.043162 101.617354
RightForeArm 25.459509 -0.000000 86.824884
RightHand 28.032007 -0.000000 -11.702877
RightHandThumb1 -24.326973 -0.000000 -32.862282
LeftUpLeg 8.575620 -9.959617 -2.289670
LeftLeg 1.033389 -0.000000 -0.000000
LeftFoot -12.245196 5.924891 -21.376855
LeftToeBase 19.119204 -0.000000 -0.000000
RightUpLeg 12.447313 -5.501150 2.254662
RightLeg -2.633838 -0.000000 0.000000
RightFoot -15.783774 -21.929194 17.484453
RightToeBase 12.060857 -0.000000 -0.000000
2540
root 4.225878 32.414746 1.498988 -2.122245 16.130965 2.415676
Spine -1.559595 7.219491 -2.190493
Head 18.547278 -21.250832 -8.622426
LeftShoulder -5.559557 -9.125879 22.116700
LeftArm -5.529670 36.541549 -103.095319
LeftForeArm 4.286317 -0.000000 11.209161
LeftHand 10.224574 0.000000 -7.272641
LeftHandThumb1 -26.253704 0.000000 33.147579
RightShoulder -16.942714 15.902561 -63.730700
RightArm 94.622061 74.061150 98.238618
RightForeArm 25.574314 -0.000000 83.673275
RightHand 27.486240 -0.000000 -11.105801
RightHandThumb1 -24.326973 -0.000000 -32.862282
LeftUpLeg 8.635831 -9.958192 -2.295876
LeftLeg 1.026765 -0.000000 -0.000000
LeftFoot -12.237417 5.879904 -21.349988
LeftToeBase 19.129018 -0.000000 -0.000000
RightUpLeg 12.518111 -5.487289 2.258629
RightLeg -2.638085 -0.000000 0.000000
RightFoot -15.828778 -21.994065 17.498839
RightToeBase 11.987323 -0.000000 -0.000000
2541
root 4.225924 32.412779 1.511166 -2.159044 16.173993 2.423457
Spine -1.568437 7.166717 -2.216291
Head 18.548645 -21.260856 -8.512024
LeftShoulder -5.590766 -9.131025 22.149538
LeftArm -5.526267 36.571872 -103.125209
LeftForeArm 4.267621 -0.000000 11.196267
LeftHand 10.243084 -0.000000 -7.396644
LeftHandThumb1 -26.253704 0.000000 33.147579
RightShoulder -17.060106 15.767968 -63.812837
RightArm 92.490856 73.873784 95.568037
RightForeArm 25.802181 -0.000000 80.518018
RightHand 27.069983 -0.000000 -10.410660
RightHandThumb1 -24.326973 -0.000000 -32.862282
LeftUpLeg 8.681990 -9.939261 -2.298349
LeftLeg 1.035836 -0.000000 -0.000000
LeftFoot -12.255638 5.857673 -21.204425
LeftToeBase 19.285906 -0.000000 -0.000000
RightUpLeg 12.574884 -5.509597 2.253743
RightLeg -2.621618 -0.000000 0.000000
RightFoot -15.873330 -22.005993 17.522294
RightToeBase 12.036041 -0.000000 -0.000000
2542
root 4.227075 32.410726 1.523532 -2.199260 16.212599 2.425481
Spine -1.583859 7.108516 -2.236709
Head 18.567096 -21.287649 -8.411147
LeftShoulder -5.615790 -9.136171 22.187189
LeftArm -5.523831 36.582754 -103.169749
LeftForeArm 4.324243 -0.000000 11.154710
LeftHand 10.302118 -0.000000 -7.310791
LeftHandThumb1 -26.253704 0.000000 33.147579
RightShoulder -17.101240 15.588981 -63.885064
RightArm 90.765867 73.710622 93.304385
RightForeArm 25.884306 0.000000 77.393938
RightHand 26.664841 -0.000000 -9.547594
RightHandThumb1 -24.326973 -0.000000 -32.862282
LeftUpLeg 8.734767 -9.954317 -2.305122
LeftLeg 1.055814 -0.000000 -0.000000
LeftFoot -12.254304 5.792994 -21.330434
LeftToeBase 19.122419 -0.000000 -0.000000
RightUpLeg 12.633737 -5.562173 2.246557
RightLeg -2.600650 -0.000000 0.000000
RightFoot -15.920095 -21.977471 17.552880
RightToeBase 12.027635 -0.000000 -0.000000
2543
root 4.228260 32.408915 1.536316 -2.244071 16.248610 2.429410
Spine -1.595948 7.046662 -2.251587
Head 18.576514 -21.295718 -8.328455
LeftShoulder -5.635614 -9.128940 22.212012
LeftArm -5.516828 36.527424 -103.188171
LeftForeArm 4.556144 -0.000000 11.137030
LeftHand 10.144749 -0.000000 -6.978460
LeftHandThumb1 -26.253704 0.000000 33.147579
RightShoulder -17.196334 15.500739 -63.991054
RightArm 88.905424 73.428250 90.881933
RightForeArm 25.598142 0.000000 74.263252
RightHand 26.199701 -0.000000 -8.664476
RightHandThumb1 -24.326973 -0.000000 -32.862282
LeftUpLeg 8.791185 -9.967807 -2.313110
LeftLeg 1.056126 -0.000000 -0.000000
LeftFoot -12.277749 5.801808 -21.397134
LeftToeBase 19.167650 -0.000000 -0.000000
RightUpLeg 12.704763 -5.572775 2.244584
RightLeg -2.596485 -0.000000 0.000000
RightFoot -15.955380 -21.997897 17.566829
RightToeBase 12.056735 -0.000000 -0.000000
